ffmpeg started on 2025-06-16 at 16:42:05
Report written to "D:\Convert\FFMetrics\reports\ssim_report-6.txt"
Log level: 32
Command line:
ffmpeg -hide_banner -nostdin -i "G:\\\xc0\xed\xe8\xec\xe5\\[\xd2\xee\xef]\\\xd0\xfb\xf6\xe0\xf0\xfc-\xe2\xe0\xec\xef\xe8\xf0\\\xd2\xc2-1\\[JamClub] Vampire Knight - 13_HEVC.mkv" -i "G:\\\xc0\xed\xe8\xec\xe5\\[\xd2\xee\xef]\\\xd0\xfb\xf6\xe0\xf0\xfc-\xe2\xe0\xec\xef\xe8\xf0\\\xd2\xc2-1\\[JamClub] Vampire Knight - 13.mp4" -lavfi "[0:v]settb=AVTB,setpts=PTS-STARTPTS,format=pix_fmts=yuv420p10,fps=24000/1001,scale=1920:1080:flags=bicubic[main];[1:v]settb=AVTB,setpts=PTS-STARTPTS,format=pix_fmts=yuv420p,fps=24000/1001,scale=1920:1080:flags=bicubic[ref];[main][ref]ssim=eof_action=endall:stats_file='D\\:/Convert/FFMetrics/logs/ssim_logfile-6.txt'" -f null -
Input #0, matroska,webm, from 'G:\Аниме\[Топ]\Рыцарь-вампир\ТВ-1\[JamClub] Vampire Knight - 13_HEVC.mkv':
  Metadata:
    COMPATIBLE_BRANDS: isomiso2avc1mp41
    MAJOR_BRAND     : isom
    MINOR_VERSION   : 512
    ENCODER         : Lavf61.7.100
  Duration: 00:24:25.44, start: -0.001000, bitrate: 1056 kb/s
  Stream #0:0: Video: hevc (Main 10), yuv420p10le(tv, bt709, progressive), 1920x1080 [SAR 1:1 DAR 16:9], 23.98 fps, 23.98 tbr, 1k tbn (default)
      Metadata:
        HANDLER_NAME    : VideoHandler
        VENDOR_ID       : [0][0][0][0]
        ENCODER         : Lavc61.19.100 libx265
        BPS             : 857648
        DURATION        : 00:24:25.380708333
        NUMBER_OF_FRAMES: 43784
        NUMBER_OF_BYTES : 157097630
        _STATISTICS_WRITING_APP: mkvpropedit v66.0.0 ('Josie') 64-bit
        _STATISTICS_WRITING_DATE_UTC: 2025-06-16 09:46:58
        _STATISTICS_TAGS: BPS DURATION NUMBER_OF_FRAMES NUMBER_OF_BYTES
  Stream #0:1(eng): Audio: aac (LC), 48000 Hz, stereo, fltp (default)
      Metadata:
        HANDLER_NAME    : SoundHandler
        VENDOR_ID       : [0][0][0][0]
        ENCODER         : Lavc61.19.100 aac
        BPS             : 194397
        DURATION        : 00:24:25.402000000
        NUMBER_OF_FRAMES: 68692
        NUMBER_OF_BYTES : 35608891
        _STATISTICS_WRITING_APP: mkvpropedit v66.0.0 ('Josie') 64-bit
        _STATISTICS_WRITING_DATE_UTC: 2025-06-16 09:46:58
        _STATISTICS_TAGS: BPS DURATION NUMBER_OF_FRAMES NUMBER_OF_BYTES
Input #1, mov,mp4,m4a,3gp,3g2,mj2, from 'G:\Аниме\[Топ]\Рыцарь-вампир\ТВ-1\[JamClub] Vampire Knight - 13.mp4':
  Metadata:
    major_brand     : isom
    minor_version   : 512
    compatible_brands: isomiso2avc1mp41
    encoder         : Lavf60.16.100
  Duration: 00:24:25.42, start: 0.000000, bitrate: 3918 kb/s
  Stream #1:0[0x1](und): Video: h264 (High) (avc1 / 0x31637661), yuv420p(progressive), 1920x1080 [SAR 1:1 DAR 16:9], 3717 kb/s, 29.88 fps, 23.98 tbr, 90k tbn (default)
      Metadata:
        handler_name    : VideoHandler
        vendor_id       : [0][0][0][0]
  Stream #1:1[0x2](eng): Audio: aac (LC) (mp4a / 0x6134706D), 48000 Hz, stereo, fltp, 191 kb/s (default)
      Metadata:
        handler_name    : SoundHandler
        vendor_id       : [0][0][0][0]
Stream mapping:
  Stream #0:0 (hevc) -> settb:default
  Stream #1:0 (h264) -> settb:default
  ssim:default -> Stream #0:0 (wrapped_avframe)
  Stream #0:1 -> #0:1 (aac (native) -> pcm_s16le (native))
Output #0, null, to 'pipe:':
  Metadata:
    COMPATIBLE_BRANDS: isomiso2avc1mp41
    MAJOR_BRAND     : isom
    MINOR_VERSION   : 512
    encoder         : Lavf61.7.100
  Stream #0:0: Video: wrapped_avframe, yuv420p10le(tv, bt709, progressive), 1920x1080 [SAR 1:1 DAR 16:9], q=2-31, 200 kb/s, 23.98 fps, 23.98 tbn
      Metadata:
        encoder         : Lavc61.19.100 wrapped_avframe
  Stream #0:1(eng): Audio: pcm_s16le, 48000 Hz, stereo, s16, 1536 kb/s (default)
      Metadata:
        HANDLER_NAME    : SoundHandler
        VENDOR_ID       : [0][0][0][0]
        _STATISTICS_TAGS: BPS DURATION NUMBER_OF_FRAMES NUMBER_OF_BYTES
        BPS             : 194397
        DURATION        : 00:24:25.402000000
        NUMBER_OF_FRAMES: 68692
        NUMBER_OF_BYTES : 35608891
        _STATISTICS_WRITING_APP: mkvpropedit v66.0.0 ('Josie') 64-bit
        _STATISTICS_WRITING_DATE_UTC: 2025-06-16 09:46:58
        encoder         : Lavc61.19.100 pcm_s16le
frame=  112 fps=0.0 q=-0.0 size=N/A time=00:00:04.67 bitrate=N/A speed=8.95x    frame=  273 fps=265 q=-0.0 size=N/A time=00:00:11.42 bitrate=N/A speed=11.1x    frame=  476 fps=309 q=-0.0 size=N/A time=00:00:19.85 bitrate=N/A speed=12.9x    frame=  700 fps=339 q=-0.0 size=N/A time=00:00:29.19 bitrate=N/A speed=14.1x    frame=  896 fps=347 q=-0.0 size=N/A time=00:00:37.41 bitrate=N/A speed=14.5x    frame= 1141 fps=370 q=-0.0 size=N/A time=00:00:47.58 bitrate=N/A speed=15.4x    frame= 1391 fps=385 q=-0.0 size=N/A time=00:00:58.01 bitrate=N/A speed=16.1x    frame= 1637 fps=398 q=-0.0 size=N/A time=00:01:08.27 bitrate=N/A speed=16.6x    frame= 1881 fps=406 q=-0.0 size=N/A time=00:01:18.45 bitrate=N/A speed=16.9x    frame= 2115 fps=410 q=-0.0 size=N/A time=00:01:28.21 bitrate=N/A speed=17.1x    frame= 2354 fps=415 q=-0.0 size=N/A time=00:01:38.18 bitrate=N/A speed=17.3x    frame= 2555 fps=413 q=-0.0 size=N/A time=00:01:46.56 bitrate=N/A speed=17.2x    frame= 2723 fps=406 q=-0.0 size=N/A time=00:01:53.57 bitrate=N/A speed=16.9x    frame= 2882 fps=400 q=-0.0 size=N/A time=00:02:00.20 bitrate=N/A speed=16.7x    frame= 3076 fps=397 q=-0.0 size=N/A time=00:02:08.29 bitrate=N/A speed=16.6x    frame= 3257 fps=395 q=-0.0 size=N/A time=00:02:15.84 bitrate=N/A speed=16.5x    frame= 3465 fps=396 q=-0.0 size=N/A time=00:02:24.51 bitrate=N/A speed=16.5x    frame= 3617 fps=389 q=-0.0 size=N/A time=00:02:30.85 bitrate=N/A speed=16.2x    frame= 3806 fps=388 q=-0.0 size=N/A time=00:02:38.74 bitrate=N/A speed=16.2x    frame= 3969 fps=385 q=-0.0 size=N/A time=00:02:45.54 bitrate=N/A speed=16.1x    frame= 4166 fps=385 q=-0.0 size=N/A time=00:02:53.75 bitrate=N/A speed=  16x    frame= 4366 fps=385 q=-0.0 size=N/A time=00:03:02.09 bitrate=N/A speed=  16x    frame= 4575 fps=386 q=-0.0 size=N/A time=00:03:10.81 bitrate=N/A speed=16.1x    frame= 4759 fps=385 q=-0.0 size=N/A time=00:03:18.48 bitrate=N/A speed=16.1x    frame= 4980 fps=386 q=-0.0 size=N/A time=00:03:27.70 bitrate=N/A speed=16.1x    frame= 5216 fps=389 q=-0.0 size=N/A time=00:03:37.55 bitrate=N/A speed=16.2x    frame= 5458 fps=392 q=-0.0 size=N/A time=00:03:47.64 bitrate=N/A speed=16.4x    frame= 5695 fps=394 q=-0.0 size=N/A time=00:03:57.52 bitrate=N/A speed=16.5x    frame= 5922 fps=396 q=-0.0 size=N/A time=00:04:06.99 bitrate=N/A speed=16.5x    frame= 6165 fps=399 q=-0.0 size=N/A time=00:04:17.13 bitrate=N/A speed=16.6x    frame= 6416 fps=401 q=-0.0 size=N/A time=00:04:27.60 bitrate=N/A speed=16.7x    frame= 6659 fps=404 q=-0.0 size=N/A time=00:04:37.73 bitrate=N/A speed=16.8x    frame= 6913 fps=406 q=-0.0 size=N/A time=00:04:48.32 bitrate=N/A speed=16.9x    frame= 7132 fps=407 q=-0.0 size=N/A time=00:04:57.46 bitrate=N/A speed=  17x    frame= 7361 fps=408 q=-0.0 size=N/A time=00:05:07.05 bitrate=N/A speed=  17x    frame= 7581 fps=408 q=-0.0 size=N/A time=00:05:16.19 bitrate=N/A speed=  17x    frame= 7805 fps=409 q=-0.0 size=N/A time=00:05:25.53 bitrate=N/A speed=17.1x    frame= 8041 fps=411 q=-0.0 size=N/A time=00:05:35.37 bitrate=N/A speed=17.1x    frame= 8270 fps=411 q=-0.0 size=N/A time=00:05:44.92 bitrate=N/A speed=17.1x    frame= 8478 fps=411 q=-0.0 size=N/A time=00:05:53.60 bitrate=N/A speed=17.1x    frame= 8701 fps=412 q=-0.0 size=N/A time=00:06:02.90 bitrate=N/A speed=17.2x    frame= 8933 fps=412 q=-0.0 size=N/A time=00:06:12.58 bitrate=N/A speed=17.2x    frame= 9150 fps=413 q=-0.0 size=N/A time=00:06:21.63 bitrate=N/A speed=17.2x    frame= 9334 fps=412 q=-0.0 size=N/A time=00:06:29.30 bitrate=N/A speed=17.2x    frame= 9518 fps=410 q=-0.0 size=N/A time=00:06:36.97 bitrate=N/A speed=17.1x    frame= 9743 fps=411 q=-0.0 size=N/A time=00:06:46.36 bitrate=N/A speed=17.1x    frame= 9965 fps=411 q=-0.0 size=N/A time=00:06:55.62 bitrate=N/A speed=17.2x    frame=10209 fps=412 q=-0.0 size=N/A time=00:07:05.80 bitrate=N/A speed=17.2x    frame=10422 fps=412 q=-0.0 size=N/A time=00:07:14.68 bitrate=N/A speed=17.2x    frame=10637 fps=413 q=-0.0 size=N/A time=00:07:23.65 bitrate=N/A speed=17.2x    frame=10850 fps=413 q=-0.0 size=N/A time=00:07:32.53 bitrate=N/A speed=17.2x    frame=11063 fps=413 q=-0.0 size=N/A time=00:07:41.41 bitrate=N/A speed=17.2x    frame=11293 fps=413 q=-0.0 size=N/A time=00:07:51.01 bitrate=N/A speed=17.2x    frame=11497 fps=413 q=-0.0 size=N/A time=00:07:59.52 bitrate=N/A speed=17.2x    frame=11711 fps=413 q=-0.0 size=N/A time=00:08:08.44 bitrate=N/A speed=17.2x    frame=11928 fps=413 q=-0.0 size=N/A time=00:08:17.49 bitrate=N/A speed=17.2x    frame=12135 fps=413 q=-0.0 size=N/A time=00:08:26.13 bitrate=N/A speed=17.2x    frame=12349 fps=413 q=-0.0 size=N/A time=00:08:35.05 bitrate=N/A speed=17.2x    frame=12544 fps=412 q=-0.0 size=N/A time=00:08:43.18 bitrate=N/A speed=17.2x    frame=12757 fps=412 q=-0.0 size=N/A time=00:08:52.07 bitrate=N/A speed=17.2x    frame=12998 fps=413 q=-0.0 size=N/A time=00:09:02.12 bitrate=N/A speed=17.2x    frame=13240 fps=414 q=-0.0 size=N/A time=00:09:12.21 bitrate=N/A speed=17.3x    frame=13474 fps=415 q=-0.0 size=N/A time=00:09:21.97 bitrate=N/A speed=17.3x    frame=13699 fps=415 q=-0.0 size=N/A time=00:09:31.36 bitrate=N/A speed=17.3x    frame=13930 fps=416 q=-0.0 size=N/A time=00:09:40.99 bitrate=N/A speed=17.3x    frame=14166 fps=416 q=-0.0 size=N/A time=00:09:50.84 bitrate=N/A speed=17.4x    frame=14395 fps=417 q=-0.0 size=N/A time=00:10:00.39 bitrate=N/A speed=17.4x    frame=14620 fps=417 q=-0.0 size=N/A time=00:10:09.77 bitrate=N/A speed=17.4x    frame=14857 fps=418 q=-0.0 size=N/A time=00:10:19.66 bitrate=N/A speed=17.4x    frame=15070 fps=418 q=-0.0 size=N/A time=00:10:28.54 bitrate=N/A speed=17.4x    frame=15290 fps=418 q=-0.0 size=N/A time=00:10:37.72 bitrate=N/A speed=17.4x    frame=15509 fps=418 q=-0.0 size=N/A time=00:10:46.85 bitrate=N/A speed=17.4x    frame=15697 fps=417 q=-0.0 size=N/A time=00:10:54.69 bitrate=N/A speed=17.4x    frame=15913 fps=417 q=-0.0 size=N/A time=00:11:03.70 bitrate=N/A speed=17.4x    frame=16121 fps=417 q=-0.0 size=N/A time=00:11:12.38 bitrate=N/A speed=17.4x    frame=16338 fps=417 q=-0.0 size=N/A time=00:11:21.43 bitrate=N/A speed=17.4x    frame=16557 fps=417 q=-0.0 size=N/A time=00:11:30.56 bitrate=N/A speed=17.4x    frame=16753 fps=417 q=-0.0 size=N/A time=00:11:38.73 bitrate=N/A speed=17.4x    frame=16964 fps=416 q=-0.0 size=N/A time=00:11:47.54 bitrate=N/A speed=17.4x    frame=17186 fps=417 q=-0.0 size=N/A time=00:11:56.79 bitrate=N/A speed=17.4x    frame=17421 fps=417 q=-0.0 size=N/A time=00:12:06.60 bitrate=N/A speed=17.4x    frame=17644 fps=417 q=-0.0 size=N/A time=00:12:15.90 bitrate=N/A speed=17.4x    frame=17808 fps=416 q=-0.0 size=N/A time=00:12:22.74 bitrate=N/A speed=17.4x    frame=18031 fps=416 q=-0.0 size=N/A time=00:12:32.04 bitrate=N/A speed=17.4x    frame=18255 fps=417 q=-0.0 size=N/A time=00:12:41.38 bitrate=N/A speed=17.4x    frame=18495 fps=417 q=-0.0 size=N/A time=00:12:51.39 bitrate=N/A speed=17.4x    frame=18722 fps=417 q=-0.0 size=N/A time=00:13:00.86 bitrate=N/A speed=17.4x    frame=18967 fps=418 q=-0.0 size=N/A time=00:13:11.08 bitrate=N/A speed=17.4x    frame=19174 fps=418 q=-0.0 size=N/A time=00:13:19.71 bitrate=N/A speed=17.4x    frame=19397 fps=418 q=-0.0 size=N/A time=00:13:29.01 bitrate=N/A speed=17.4x    frame=19627 fps=418 q=-0.0 size=N/A time=00:13:38.60 bitrate=N/A speed=17.4x    frame=19864 fps=419 q=-0.0 size=N/A time=00:13:48.49 bitrate=N/A speed=17.5x    frame=20097 fps=419 q=-0.0 size=N/A time=00:13:58.21 bitrate=N/A speed=17.5x    frame=20319 fps=419 q=-0.0 size=N/A time=00:14:07.47 bitrate=N/A speed=17.5x    frame=20541 fps=419 q=-0.0 size=N/A time=00:14:16.73 bitrate=N/A speed=17.5x    frame=20756 fps=419 q=-0.0 size=N/A time=00:14:25.69 bitrate=N/A speed=17.5x    frame=20994 fps=420 q=-0.0 size=N/A time=00:14:35.62 bitrate=N/A speed=17.5x    frame=21211 fps=420 q=-0.0 size=N/A time=00:14:44.67 bitrate=N/A speed=17.5x    frame=21434 fps=420 q=-0.0 size=N/A time=00:14:53.97 bitrate=N/A speed=17.5x    frame=21647 fps=420 q=-0.0 size=N/A time=00:15:02.86 bitrate=N/A speed=17.5x    frame=21885 fps=420 q=-0.0 size=N/A time=00:15:12.78 bitrate=N/A speed=17.5x    frame=22115 fps=420 q=-0.0 size=N/A time=00:15:22.37 bitrate=N/A speed=17.5x    frame=22319 fps=420 q=-0.0 size=N/A time=00:15:30.88 bitrate=N/A speed=17.5x    frame=22547 fps=420 q=-0.0 size=N/A time=00:15:40.39 bitrate=N/A speed=17.5x    frame=22749 fps=420 q=-0.0 size=N/A time=00:15:48.82 bitrate=N/A speed=17.5x    frame=22961 fps=420 q=-0.0 size=N/A time=00:15:57.66 bitrate=N/A speed=17.5x    frame=23144 fps=419 q=-0.0 size=N/A time=00:16:05.29 bitrate=N/A speed=17.5x    frame=23331 fps=419 q=-0.0 size=N/A time=00:16:13.09 bitrate=N/A speed=17.5x    frame=23489 fps=418 q=-0.0 size=N/A time=00:16:19.68 bitrate=N/A speed=17.4x    frame=23675 fps=417 q=-0.0 size=N/A time=00:16:27.44 bitrate=N/A speed=17.4x    frame=23903 fps=417 q=-0.0 size=N/A time=00:16:36.95 bitrate=N/A speed=17.4x    frame=24143 fps=418 q=-0.0 size=N/A time=00:16:46.96 bitrate=N/A speed=17.4x    frame=24377 fps=418 q=-0.0 size=N/A time=00:16:56.72 bitrate=N/A speed=17.4x    frame=24610 fps=418 q=-0.0 size=N/A time=00:17:06.44 bitrate=N/A speed=17.5x    frame=24830 fps=419 q=-0.0 size=N/A time=00:17:15.61 bitrate=N/A speed=17.5x    frame=25059 fps=419 q=-0.0 size=N/A time=00:17:25.16 bitrate=N/A speed=17.5x    frame=25279 fps=419 q=-0.0 size=N/A time=00:17:34.34 bitrate=N/A speed=17.5x    frame=25509 fps=419 q=-0.0 size=N/A time=00:17:43.93 bitrate=N/A speed=17.5x    frame=25744 fps=419 q=-0.0 size=N/A time=00:17:53.73 bitrate=N/A speed=17.5x    frame=25955 fps=419 q=-0.0 size=N/A time=00:18:02.53 bitrate=N/A speed=17.5x    frame=26185 fps=420 q=-0.0 size=N/A time=00:18:12.13 bitrate=N/A speed=17.5x    frame=26418 fps=420 q=-0.0 size=N/A time=00:18:21.85 bitrate=N/A speed=17.5x    frame=26627 fps=420 q=-0.0 size=N/A time=00:18:30.56 bitrate=N/A speed=17.5x    frame=26862 fps=420 q=-0.0 size=N/A time=00:18:40.36 bitrate=N/A speed=17.5x    frame=27080 fps=420 q=-0.0 size=N/A time=00:18:49.46 bitrate=N/A speed=17.5x    frame=27312 fps=420 q=-0.0 size=N/A time=00:18:59.13 bitrate=N/A speed=17.5x    frame=27514 fps=420 q=-0.0 size=N/A time=00:19:07.56 bitrate=N/A speed=17.5x    frame=27735 fps=420 q=-0.0 size=N/A time=00:19:16.78 bitrate=N/A speed=17.5x    frame=27952 fps=420 q=-0.0 size=N/A time=00:19:25.83 bitrate=N/A speed=17.5x    frame=28192 fps=420 q=-0.0 size=N/A time=00:19:35.84 bitrate=N/A speed=17.5x    frame=28409 fps=420 q=-0.0 size=N/A time=00:19:44.89 bitrate=N/A speed=17.5x    frame=28612 fps=420 q=-0.0 size=N/A time=00:19:53.35 bitrate=N/A speed=17.5x    frame=28840 fps=420 q=-0.0 size=N/A time=00:20:02.86 bitrate=N/A speed=17.5x    frame=29030 fps=420 q=-0.0 size=N/A time=00:20:10.79 bitrate=N/A speed=17.5x    frame=29251 fps=420 q=-0.0 size=N/A time=00:20:20.01 bitrate=N/A speed=17.5x    frame=29458 fps=420 q=-0.0 size=N/A time=00:20:28.64 bitrate=N/A speed=17.5x    frame=29682 fps=420 q=-0.0 size=N/A time=00:20:37.98 bitrate=N/A speed=17.5x    frame=29920 fps=420 q=-0.0 size=N/A time=00:20:47.91 bitrate=N/A speed=17.5x    frame=30145 fps=420 q=-0.0 size=N/A time=00:20:57.29 bitrate=N/A speed=17.5x    frame=30376 fps=421 q=-0.0 size=N/A time=00:21:06.93 bitrate=N/A speed=17.5x    frame=30577 fps=420 q=-0.0 size=N/A time=00:21:15.31 bitrate=N/A speed=17.5x    frame=30797 fps=420 q=-0.0 size=N/A time=00:21:24.49 bitrate=N/A speed=17.5x    frame=31020 fps=420 q=-0.0 size=N/A time=00:21:33.79 bitrate=N/A speed=17.5x    frame=31238 fps=421 q=-0.0 size=N/A time=00:21:42.88 bitrate=N/A speed=17.5x    frame=31449 fps=420 q=-0.0 size=N/A time=00:21:51.68 bitrate=N/A speed=17.5x    frame=31683 fps=421 q=-0.0 size=N/A time=00:22:01.44 bitrate=N/A speed=17.5x    frame=31901 fps=421 q=-0.0 size=N/A time=00:22:10.53 bitrate=N/A speed=17.5x    frame=32125 fps=421 q=-0.0 size=N/A time=00:22:19.88 bitrate=N/A speed=17.5x    frame=32346 fps=421 q=-0.0 size=N/A time=00:22:29.09 bitrate=N/A speed=17.6x    frame=32553 fps=421 q=-0.0 size=N/A time=00:22:37.73 bitrate=N/A speed=17.5x    frame=32777 fps=421 q=-0.0 size=N/A time=00:22:47.07 bitrate=N/A speed=17.6x    frame=33004 fps=421 q=-0.0 size=N/A time=00:22:56.54 bitrate=N/A speed=17.6x    frame=33208 fps=421 q=-0.0 size=N/A time=00:23:05.05 bitrate=N/A speed=17.5x    frame=33414 fps=421 q=-0.0 size=N/A time=00:23:13.64 bitrate=N/A speed=17.5x    frame=33614 fps=420 q=-0.0 size=N/A time=00:23:21.98 bitrate=N/A speed=17.5x    frame=33838 fps=420 q=-0.0 size=N/A time=00:23:31.32 bitrate=N/A speed=17.5x    frame=34058 fps=421 q=-0.0 size=N/A time=00:23:40.50 bitrate=N/A speed=17.5x    frame=34263 fps=420 q=-0.0 size=N/A time=00:23:49.05 bitrate=N/A speed=17.5x    frame=34462 fps=420 q=-0.0 size=N/A time=00:23:57.35 bitrate=N/A speed=17.5x    frame=34661 fps=420 q=-0.0 size=N/A time=00:24:05.65 bitrate=N/A speed=17.5x    frame=34861 fps=420 q=-0.0 size=N/A time=00:24:13.99 bitrate=N/A speed=17.5x    frame=35081 fps=420 q=-0.0 size=N/A time=00:24:23.17 bitrate=N/A speed=17.5x    [Parsed_ssim_10 @ 000001f637bad9c0] SSIM Y:0.995075 (23.075593) U:0.995466 (23.434778) V:0.995490 (23.457981) All:0.995209 (23.195700)
[out#0/null @ 000001f6351435c0] video:15096KiB audio:274768KiB subtitle:0KiB other streams:0KiB global headers:0KiB muxing overhead: unknown
frame=35133 fps=420 q=-0.0 Lsize=N/A time=00:24:25.33 bitrate=N/A speed=17.5x    
